<svg width="96" height="96" xmlns="http://www.w3.org/2000/svg" xmlns:xlink="http://www.w3.org/1999/xlink" xml:space="preserve" overflow="hidden"><defs><clipPath id="clip0"><rect x="799" y="312" width="96" height="96"/></clipPath></defs><g clip-path="url(#clip0)" transform="translate(-799 -312)"><path d="M883 336 863.566 336 857.566 326 836.434 326 830.434 336 811 336C808.24 336.003 806.003 338.24 806 341L806 389C806.003 391.76 808.24 393.997 811 394L883 394C885.76 393.997 887.997 391.76 888 389L888 341C887.997 338.24 885.76 336.003 883 336ZM837.566 328 856.434 328 861.234 336 832.766 336ZM883 338C884.657 338 886 339.343 886 341L886 389C886 390.657 884.657 392 883 392L811 392C809.343 392 808 390.657 808 389L808 341C808 339.343 809.343 338 811 338Z"/><path d="M814 353 827 353 827 344 814 344ZM816 346 825 346 825 351 816 351Z"/><path d="M847 349C837.059 349 829 357.059 829 367 829 376.941 837.059 385 847 385 856.941 385 865 376.941 865 367 864.988 357.064 856.936 349.012 847 349ZM847 383C838.163 383 831 375.837 831 367 831 358.163 838.163 351 847 351 855.837 351 863 358.163 863 367 862.99 375.832 855.832 382.99 847 383Z"/><path d="M847 355C840.373 355 835 360.373 835 367 835 373.627 840.373 379 847 379 853.627 379 859 373.627 859 367 858.993 360.376 853.624 355.007 847 355ZM847 377C841.477 377 837 372.523 837 367 837 361.477 841.477 357 847 357 852.523 357 857 361.477 857 367 856.994 372.52 852.52 376.994 847 377Z"/></g></svg>