<svg width="96" height="96" xmlns="http://www.w3.org/2000/svg" xmlns:xlink="http://www.w3.org/1999/xlink" xml:space="preserve" overflow="hidden"><defs><clipPath id="clip0"><rect x="481" y="296" width="96" height="96"/></clipPath></defs><g clip-path="url(#clip0)" transform="translate(-481 -296)"><path d="M558.118 310 505.292 310 495 320.292 495 373.118C495.003 375.813 497.187 377.997 499.882 378L558.118 378C560.813 377.997 562.997 375.813 563 373.118L563 314.882C562.997 312.187 560.813 310.003 558.118 310ZM512 312 546 312 546 335C546 335.552 545.552 336 545 336L513 336C512.448 336 512 335.552 512 335ZM561 373.118C560.998 374.709 559.709 375.998 558.118 376L499.882 376C498.291 375.998 497.002 374.709 497 373.118L497 321.118 506.12 312 510 312 510 335C510 336.657 511.343 338 513 338L545 338C546.657 338 548 336.657 548 335L548 312 558.118 312C559.709 312.002 560.998 313.291 561 314.882Z"/><path d="M529 344C522.925 344 518 348.925 518 355 518 361.075 522.925 366 529 366 535.075 366 540 361.075 540 355 539.993 348.928 535.072 344.007 529 344ZM529 364C524.029 364 520 359.971 520 355 520 350.029 524.029 346 529 346 533.971 346 538 350.029 538 355 537.994 359.968 533.968 363.994 529 364Z"/><path d="M526 352 532 352 532 358 526 358Z"/><path d="M525 315 517 315 517 333 525 333ZM523 331 519 331 519 317 523 317Z"/></g></svg>